<?xml version="1.0" encoding="UTF-8"?>
<svg width="1480px" height="360px" viewBox="0 0 1480 360" version="1.1" xmlns="http://www.w3.org/2000/svg" xmlns:xlink="http://www.w3.org/1999/xlink">
    <title>Slice</title>
    <g id="V2-Logo" stroke="none" stroke-width="1" fill="none" fill-rule="evenodd">
        <g id="Logo" transform="translate(73.000000, 85.750000)">
            <g id="TechDash" transform="translate(252.589287, 0.000000)" fill="#E6E6E6" fill-rule="nonzero">
                <polygon id="Path" points="0 32.9589844 0 0 151.445312 0 151.445312 32.9589844 94.9960938 32.9589844 94.9960938 186.25 56.5664062 186.25 56.5664062 32.9589844"></polygon>
                <path d="M188.957687,189.25 C175.636073,189.25 164.019211,186.30306 154.107101,180.40918 C144.194992,174.515299 136.518234,166.369466 131.076828,155.97168 C125.635422,145.573893 122.914719,133.705078 122.914719,120.365234 C122.914719,106.902995 125.681646,94.9749349 131.2155,84.5810547 C136.749354,74.1871745 144.387375,66.0335286 154.129562,60.1201172 C163.87175,54.2067057 175.070969,51.25 187.727219,51.25 C197.43425,51.25 206.256516,52.9052734 214.194016,56.2158203 C222.131516,59.5263672 228.972661,64.2314453 234.717453,70.3310547 C240.462245,76.4306641 244.888026,83.6533203 247.994797,91.9990234 C251.101568,100.344727 252.654953,109.552734 252.654953,119.623047 L252.654953,129.546875 L136.055344,129.546875 L136.055344,106.033203 L234.908859,106.033203 L218.291672,111.597656 C218.291672,104.9375 217.08106,99.194987 214.659836,94.3701172 C212.238612,89.5452474 208.808924,85.8264974 204.370773,83.2138672 C199.932622,80.601237 194.632818,79.2949219 188.471359,79.2949219 C182.391932,79.2949219 177.131516,80.601237 172.690109,83.2138672 C168.248703,85.8264974 164.817388,89.5452474 162.396164,94.3701172 C159.97494,99.194987 158.764328,104.9375 158.764328,111.597656 L158.764328,127.685547 C158.764328,134.473307 159.989588,140.422201 162.440109,145.532227 C164.89063,150.642253 168.452154,154.602865 173.12468,157.414062 C177.797206,160.22526 183.434901,161.630859 190.037766,161.630859 C194.847661,161.630859 199.121424,160.932943 202.859055,159.537109 C206.596685,158.141276 209.724289,156.177083 212.241867,153.644531 C214.759445,151.111979 216.572271,148.161458 217.680344,144.792969 L251.350266,144.792969 C249.729172,153.52474 246.000982,161.224284 240.165695,167.891602 C234.330409,174.558919 227.002935,179.785482 218.183273,183.571289 C209.363612,187.357096 199.62175,189.25 188.957687,189.25 Z" id="Path"></path>
                <path d="M322.890549,189.25 C309.688726,189.25 298.112554,186.346354 288.162033,180.539062 C278.211512,174.731771 270.470952,166.650065 264.940353,156.293945 C259.409754,145.937826 256.644455,133.961589 256.644455,120.365234 C256.644455,106.729818 259.409754,94.7151693 264.940353,84.3212891 C270.470952,73.9274089 278.211512,65.8170573 288.162033,59.9902344 C298.112554,54.1634115 309.688726,51.25 322.890549,51.25 C331.55982,51.25 339.554611,52.5309245 346.874924,55.0927734 C354.195236,57.6546224 360.58521,61.2679036 366.044846,65.9326172 C371.504481,70.5973307 375.866135,76.1152344 379.129807,82.4863281 C382.393478,88.8574219 384.326096,95.8938802 384.927658,103.595703 L349.25383,103.595703 C348.773361,100.218099 347.852788,97.1516927 346.492111,94.3964844 C345.131434,91.641276 343.350835,89.2675781 341.150314,87.2753906 C338.949793,85.2832031 336.371668,83.7441406 333.415939,82.6582031 C330.46021,81.5722656 327.131434,81.0292969 323.429611,81.0292969 C317.249924,81.0292969 311.945887,82.6305339 307.517502,85.8330078 C303.089116,89.0354818 299.696538,93.5768229 297.339767,99.4570312 C294.982997,105.33724 293.804611,112.306641 293.804611,120.365234 C293.804611,128.340495 294.982997,135.260091 297.339767,141.124023 C299.696538,146.987956 303.090744,151.511719 307.522385,154.695312 C311.954025,157.878906 317.256434,159.470703 323.429611,159.470703 C327.131434,159.470703 330.44133,158.935547 333.359299,157.865234 C336.277267,156.794922 338.797775,155.263672 340.920822,153.271484 C343.043869,151.279297 344.785731,148.873698 346.146408,146.054688 C347.507085,143.235677 348.48495,140.095703 349.080002,136.634766 L384.927658,136.634766 C384.505783,144.259766 382.696864,151.26888 379.5009,157.662109 C376.304937,164.055339 371.956304,169.616536 366.455002,174.345703 C360.9537,179.07487 354.509364,182.741211 347.121994,185.344727 C339.734624,187.948242 331.657476,189.25 322.890549,189.25 Z" id="Path"></path>
                <path d="M431.401695,112.914062 L431.401695,186.25 L394.628258,186.25 L394.628258,0 L431.401695,0 L431.401695,88.6132812 L424.563805,88.6132812 C428.763023,76.9205729 434.727867,67.8085938 442.458336,61.2773438 C450.188805,54.7460938 460.050133,51.4804687 472.04232,51.4804687 C481.453779,51.4804687 489.6237,53.5078125 496.552086,57.5625 C503.480471,61.6171875 508.850914,67.5195312 512.663414,75.2695312 C516.475914,83.0195312 518.382164,92.4544271 518.382164,103.574219 L518.382164,186.25 L481.606773,186.25 L481.606773,110.339844 C481.606773,101.488281 479.496422,94.7626953 475.275719,90.1630859 C471.055016,85.5634766 465.066409,83.2636719 457.309898,83.2636719 C452.243492,83.2636719 447.760094,84.3079427 443.859703,86.3964844 C439.959312,88.485026 436.90788,91.7151693 434.705406,96.0869141 C432.502932,100.458659 431.401695,106.067708 431.401695,112.914062 Z" id="Path"></path>
                <path d="M601.076607,186.25 L552.951607,186.25 L552.951607,153.830078 L599.037544,153.830078 C611.585721,153.830078 621.942167,151.49056 630.10688,146.811523 C638.271594,142.132487 644.349393,135.260417 648.340279,126.195312 C652.331164,117.130208 654.326607,106.071615 654.326607,93.0195312 C654.326607,79.9544271 652.327909,68.9182943 648.330513,59.9111328 C644.333117,50.9039714 638.272245,44.0703125 630.147896,39.4101562 C622.023547,34.75 611.766711,32.4199219 599.377388,32.4199219 L552.086372,32.4199219 L552.086372,0 L601.822701,0 C620.490669,0 636.651477,3.77571615 650.305122,11.3271484 C663.958768,18.8785807 674.492622,29.6142578 681.906685,43.5341797 C689.320747,57.4541016 693.027779,73.9492188 693.027779,93.0195312 C693.027779,112.121094 689.324979,128.639974 681.91938,142.576172 C674.513781,156.51237 663.96007,167.275391 650.258247,174.865234 C636.556424,182.455078 620.162544,186.25 601.076607,186.25 Z M573.771919,0 L573.771919,186.25 L535.342232,186.25 L535.342232,0 L573.771919,0 Z" id="Shape"></path>
                <path d="M744.337502,188.453125 C735.541929,188.453125 727.730731,186.998047 720.903908,184.087891 C714.077085,181.177734 708.699155,176.799805 704.770119,170.954102 C700.841082,165.108398 698.876564,157.810547 698.876564,149.060547 C698.876564,141.567057 700.254494,135.344076 703.010353,130.391602 C705.766212,125.439128 709.533465,121.451172 714.312111,118.427734 C719.090757,115.404297 724.592059,113.105469 730.816017,111.53125 C737.039975,109.957031 743.578387,108.843099 750.431252,108.189453 C758.488543,107.383464 764.900002,106.610026 769.665627,105.869141 C774.431252,105.128255 777.846291,104.046224 779.910744,102.623047 C781.975197,101.19987 783.007423,99.0690104 783.007423,96.2304688 L783.007423,95.3847656 C783.007423,92.1269531 782.14284,89.2623698 780.413673,86.7910156 C778.684507,84.3196615 776.217384,82.3815104 773.012306,80.9765625 C769.807228,79.5716146 765.954038,78.8691406 761.452736,78.8691406 C756.89935,78.8691406 752.898374,79.586263 749.449806,81.0205078 C746.001239,82.4547526 743.274676,84.460612 741.270119,87.0380859 C739.265561,89.6155599 738.096616,92.6178385 737.763283,96.0449219 L703.112892,96.0449219 C703.709246,86.9264323 706.411395,79.0413411 711.219337,72.3896484 C716.02728,65.7379557 722.761004,60.5901693 731.420509,56.9462891 C740.080015,53.3024089 750.450132,51.4804688 762.530861,51.4804688 C771.547788,51.4804688 779.587827,52.5107422 786.650978,54.5712891 C793.714129,56.6318359 799.680926,59.6236979 804.551369,63.546875 C809.421811,67.4700521 813.113543,72.2223307 815.626564,77.8037109 C818.139585,83.3850911 819.396095,89.6953125 819.396095,96.734375 L819.396095,186.25 L783.41172,186.25 L783.41172,167.634766 L782.91172,167.634766 C780.608335,171.926432 777.734962,175.63151 774.291603,178.75 C770.848244,181.86849 766.679949,184.265299 761.78672,185.94043 C756.893491,187.61556 751.077085,188.453125 744.337502,188.453125 Z M754.491798,162.904297 C760.413673,162.904297 765.531837,161.814453 769.846291,159.634766 C774.160744,157.455078 777.477801,154.495117 779.797462,150.754883 C782.117124,147.014648 783.276955,142.764974 783.276955,138.005859 L783.276955,124.744141 C782.218361,125.314453 780.809832,125.86556 779.051369,126.397461 C777.292905,126.929362 775.248309,127.440104 772.91758,127.929688 C770.58685,128.419271 768.051043,128.89974 765.310158,129.371094 C762.569272,129.842448 759.706642,130.305339 756.722267,130.759766 C752.538673,131.380859 748.738543,132.380208 745.321877,133.757812 C741.90521,135.135417 739.185158,136.977214 737.16172,139.283203 C735.138283,141.589193 734.126564,144.5 734.126564,148.015625 C734.126564,151.108073 734.971942,153.773763 736.662697,156.012695 C738.353452,158.251628 740.722918,159.959961 743.771095,161.137695 C746.819272,162.31543 750.39284,162.904297 754.491798,162.904297 Z" id="Shape"></path>
                <path d="M890.270805,189.453125 C878.874972,189.453125 868.724907,187.697591 859.82061,184.186523 C850.916313,180.675456 843.785454,175.583008 838.428032,168.90918 C833.07061,162.235352 830.010389,154.196615 829.247368,144.792969 L865.501274,144.792969 C866.16143,150.511719 868.565076,154.993164 872.712212,158.237305 C876.859347,161.481445 882.500623,163.103516 889.63604,163.103516 C896.508436,163.103516 901.892876,161.805339 905.78936,159.208984 C909.685844,156.61263 911.634087,153.275391 911.634087,149.197266 C911.634087,145.727214 910.138318,142.919596 907.146782,140.774414 C904.155245,138.629232 899.94854,137.025391 894.526665,135.962891 L871.38604,131.501953 C858.596977,128.990234 848.8766,124.49707 842.224907,118.022461 C835.573214,111.547852 832.247368,103.225911 832.247368,93.0566406 C832.247368,84.702474 834.515597,77.4046224 839.052055,71.1630859 C843.588514,64.9215495 850.04587,60.0761719 858.424126,56.6269531 C866.802381,53.1777344 876.712212,51.453125 888.153618,51.453125 C899.570285,51.453125 909.531873,53.2721354 918.038383,56.9101562 C926.544894,60.5481771 933.202772,65.6914062 938.012016,72.3398438 C942.821261,78.9882812 945.350883,86.9127604 945.600883,96.1132812 L911.485649,96.1132812 C911.402316,90.8229167 909.302706,86.4261068 905.186821,82.9228516 C901.070936,79.4195964 895.753227,77.6679688 889.233696,77.6679688 C882.905571,77.6679688 877.932264,79.007487 874.313774,81.6865234 C870.695285,84.3655599 868.88604,87.6608073 868.88604,91.5722656 C868.88604,94.9980469 870.303032,97.8040365 873.137016,99.9902344 C875.971001,102.176432 879.902316,103.794922 884.930962,104.845703 L909.960258,109.710938 C923.302706,112.35026 933.123344,116.604167 939.422173,122.472656 C945.721001,128.341146 948.870415,136.138021 948.870415,145.863281 C948.870415,154.660156 946.392225,162.323893 941.435844,168.854492 C936.479464,175.385091 929.59242,180.450846 920.774712,184.051758 C911.957003,187.652669 901.789035,189.453125 890.270805,189.453125 Z" id="Path"></path>
                <path d="M995.380333,112.914062 L995.380333,186.25 L958.606895,186.25 L958.606895,0 L995.380333,0 L995.380333,88.6132812 L988.542442,88.6132812 C992.741661,76.9205729 998.706505,67.8085938 1006.43697,61.2773438 C1014.16744,54.7460938 1024.02877,51.4804687 1036.02096,51.4804687 C1045.43242,51.4804687 1053.60234,53.5078125 1060.53072,57.5625 C1067.45911,61.6171875 1072.82955,67.5195312 1076.64205,75.2695312 C1080.45455,83.0195312 1082.3608,92.4544271 1082.3608,103.574219 L1082.3608,186.25 L1045.58541,186.25 L1045.58541,110.339844 C1045.58541,101.488281 1043.47506,94.7626953 1039.25436,90.1630859 C1035.03365,85.5634766 1029.04505,83.2636719 1021.28854,83.2636719 C1016.22213,83.2636719 1011.73873,84.3079427 1007.83834,86.3964844 C1003.93795,88.485026 1000.88652,91.7151693 998.684044,96.0869141 C996.48157,100.458659 995.380333,106.067708 995.380333,112.914062 Z" id="Path"></path>
            </g>
            <g id="Icon" transform="translate(0.000000, 0.250000)">
                <rect id="Critical" fill="#BA1A1A" x="0" y="153" width="189" height="34"></rect>
                <rect id="Warning" fill="#D29318" x="0" y="100" width="189" height="34"></rect>
                <rect id="Rectangle" fill="#0F9E3D" x="0" y="50" width="189" height="34"></rect>
                <rect id="Advisory" fill="#4C49D2" x="0" y="0" width="189" height="34"></rect>
            </g>
        </g>
    </g>
</svg>